<svg xmlns="http://www.w3.org/2000/svg" viewBox="0 0 225.38 46.08"><title>nav_logo2</title><g style="isolation:isolate"><g id="Layer_1" data-name="Layer 1"><path d="M23.33,23.11c1.26-1.77,7.59,3.93,10.24,6.73a2.54,2.54,0,0,1,0,3.88,3,3,0,0,1-4.19-.21C28,32.19,22,25,23.33,23.11Z" transform="translate(-2 -1.92)" fill="#f399c0"/><path d="M29.7,28c-1.16-1.17-5.77-4.58-5.36-5l0.16-.17c2.32,0.54,6.9,4.73,9.06,7a4.12,4.12,0,0,1,.29.34C32.68,30.86,30.78,29.08,29.7,28Z" transform="translate(-2 -1.92)" fill="#fff" opacity="0.15"/><path d="M25.21,26.75c1,2,3.53,5.56,5.61,5.81,1.62,0.2,2.38-1.22,3.52-1.48a2.47,2.47,0,0,1-.78,2.64,3,3,0,0,1-4.19-.21c-1.36-1.27-7-8-6.15-10.2A10.33,10.33,0,0,1,25.21,26.75Z" transform="translate(-2 -1.92)" fill="#231f20" opacity="0.05" style="mix-blend-mode:multiply"/><path d="M24.21,33.46a99.74,99.74,0,0,1,10.25-.71c4.33,0,4.89,2,4.34,5.7-0.33,2.22-2.13,5-4.39,4.79s-11.34-4.86-11.34-4.86Z" transform="translate(-2 -1.92)" fill="#f399c0"/><path d="M32.3,36.64c1.86-4.58,5.44-3.43,6.11-2.49l0,0h0c0.63,1,.63,2.39.36,4.25-0.33,2.22-2.13,5-4.39,4.79l-0.18,0C32.06,42.77,30.77,40.4,32.3,36.64Z" transform="translate(-2 -1.92)" fill="#f072ab"/><path d="M36.27,34.78c-1.33,0-2.15,1.31-2.6,2.42a4.67,4.67,0,0,0-.28,3.73,1.57,1.57,0,0,0,1.11.82h0.14c1.2,0,2.39-1.92,2.82-3.48C38,36.45,37.6,34.79,36.27,34.78Z" transform="translate(-2 -1.92)" fill="#231f20" opacity="0.1" style="mix-blend-mode:multiply"/><path d="M23.31,37.36l0.36,0a27.85,27.85,0,0,1,9.72,3.54c1.67,1,3.32-.49,4.88-0.74-0.75,1.7-2.18,3.2-3.87,3-2.26-.21-11.34-4.86-11.34-4.86Z" transform="translate(-2 -1.92)" fill="#231f20" opacity="0.05" style="mix-blend-mode:multiply"/><path d="M23.7,22.74a15.65,15.65,0,0,1,3.22,9c0,3.45-.55,8.65-9.29,8.61s-10-3.93-9.57-8.86S9.8,22.91,12.27,21Z" transform="translate(-2 -1.92)" fill="#f399c0"/><path d="M23.42,23l0.35-.17a15.64,15.64,0,0,1,3.15,8.89c0,0.26,0,.54,0,0.82-1.09-.21-1.11-2.38-1.36-3.31C24.41,25,21,24.33,23.42,23Z" transform="translate(-2 -1.92)" fill="#fff" opacity="0.15"/><path d="M20.79,25.18c0.21,0.63.59,1.63,0.94,2.84" transform="translate(-2 -1.92)" fill="none" stroke="#eb008b" stroke-linecap="round" stroke-linejoin="round" stroke-width="2"/><path d="M22.44,31.2a11.68,11.68,0,0,1-.23,4.85" transform="translate(-2 -1.92)" fill="none" stroke="#eb008b" stroke-linecap="round" stroke-linejoin="round" stroke-width="2" stroke-dasharray="3.26 3.26"/><path d="M21.59,37.56a7.44,7.44,0,0,1-1.92,2.29" transform="translate(-2 -1.92)" fill="none" stroke="#eb008b" stroke-linecap="round" stroke-linejoin="round" stroke-width="2"/><path d="M26.43,35.54c-0.82,2.55-3,4.83-8.8,4.8-8.74,0-10-3.93-9.57-8.86a22,22,0,0,1,1.72-7.2c4.11,2.1.34,8.27,0.83,11.16,0.56,3.25,7.93,4.88,11,2.77C23.74,36.71,25.12,35.51,26.43,35.54Z" transform="translate(-2 -1.92)" fill="#231f20" opacity="0.08" style="mix-blend-mode:multiply"/><path d="M11.07,22.68c-1.94-1.47-6.78,6.76-8.66,10.64a2.85,2.85,0,0,0,1.32,4.14,3.39,3.39,0,0,0,4.4-1.64C9.2,33.95,13.13,24.24,11.07,22.68Z" transform="translate(-2 -1.92)" fill="#f399c0"/><path d="M8.92,42a5.39,5.39,0,0,0,5.67,5.5,5.39,5.39,0,0,0,5.72-5.45c0-3.36-1.73-6.68-5.67-6.7S8.94,38.65,8.92,42Z" transform="translate(-2 -1.92)" fill="#f072ab"/><path d="M10.71,42a3.62,3.62,0,0,0,3.89,3.71,3.62,3.62,0,0,0,3.93-3.68c0-.82-0.17-4.88-3.89-4.9S10.71,41.2,10.71,42Z" transform="translate(-2 -1.92)" fill="#231f20" opacity="0.1" style="mix-blend-mode:multiply"/><ellipse cx="10.24" cy="6.64" rx="4.78" ry="4.4" transform="translate(-3.71 7.21) rotate(-44.75)" fill="#f399c0"/><path d="M8.61,5a2.53,2.53,0,0,0-.28,3.54,2.13,2.13,0,0,0,1.52.61,2.89,2.89,0,0,0,2-.86,2.53,2.53,0,0,0,.28-3.54,2.13,2.13,0,0,0-1.52-.61A2.89,2.89,0,0,0,8.61,5Z" transform="translate(-2 -1.92)" fill="#f072ab"/><path d="M7.14,3.52a4.6,4.6,0,0,1,6.49-.24,4.09,4.09,0,0,1,.48.59c-1,.43-1.74-1.54-4.34-0.88A4.06,4.06,0,0,0,6.57,7.83C6.89,9,7.11,9.66,6.89,10l0,0A4.6,4.6,0,0,1,7.14,3.52Z" transform="translate(-2 -1.92)" fill="#fff" opacity="0.15"/><path d="M8.61,5a2.89,2.89,0,0,1,2-.86,2.13,2.13,0,0,1,1.52.61,2.09,2.09,0,0,1,.59,1.32C12.25,6,11.89,4.78,10.57,4.71A2.31,2.31,0,0,0,8.14,7.16a6.51,6.51,0,0,1,.05,1.23A2.57,2.57,0,0,1,8.61,5Z" transform="translate(-2 -1.92)" fill="#231f20" opacity="0.05" style="mix-blend-mode:multiply"/><ellipse cx="26.53" cy="6.13" rx="4.02" ry="4.37" transform="translate(1.38 18.53) rotate(-44.75)" fill="#f399c0"/><path d="M26.2,3.83a2,2,0,0,0-1.4.55A2.31,2.31,0,0,0,25,7.62a2.64,2.64,0,0,0,1.84.8,2,2,0,0,0,1.4-.55A2.31,2.31,0,0,0,28,4.64,2.64,2.64,0,0,0,26.2,3.83Z" transform="translate(-2 -1.92)" fill="#f072ab"/><path d="M29.39,3.29A4.21,4.21,0,0,0,23.46,3a3.74,3.74,0,0,0-.45.53c0.91,0.4,1.6-1.39,4-.77a3.71,3.71,0,0,1,2.89,4.45c-0.3,1.09-.51,1.67-0.31,2l0,0A4.21,4.21,0,0,0,29.39,3.29Z" transform="translate(-2 -1.92)" fill="#fff" opacity="0.15"/><path d="M28,4.64a2.64,2.64,0,0,0-1.84-.8,2,2,0,0,0-1.4.55,1.92,1.92,0,0,0-.55,1.21c0.45-.1.79-1.18,2-1.23a2.11,2.11,0,0,1,2.21,2.25,6,6,0,0,0-.06,1.12A2.35,2.35,0,0,0,28,4.64Z" transform="translate(-2 -1.92)" fill="#231f20" opacity="0.05" style="mix-blend-mode:multiply"/><path d="M8.1,15.82c0,5.61,5,9,11.25,9s11.31-3.3,11.33-8.91-5-11.37-11.24-11.4S8.13,10.21,8.1,15.82Z" transform="translate(-2 -1.92)" fill="#f399c0"/><path d="M28.12,17.38c0.51-.88-2.76-3.35-7-3.06-5.07.34-7,3.07-6.52,3.81s3.63-1.42,7.26-1.53C24.65,16.5,27.62,18.23,28.12,17.38Z" transform="translate(-2 -1.92)" fill="#fff" opacity="0.15"/><circle cx="26.25" cy="13.11" r="0.97" transform="matrix(0, -1, 1, 0, 11.02, 37.38)" fill="#48321b"/><circle cx="26.5" cy="12.86" r="0.4" transform="translate(11.51 37.38) rotate(-89.75)" fill="#fff"/><circle cx="14.88" cy="13.39" r="0.97" transform="translate(-0.57 26.29) rotate(-89.75)" fill="#48321b"/><circle cx="15.13" cy="13.14" r="0.4" transform="translate(-0.07 26.29) rotate(-89.75)" fill="#fff"/><path d="M19.44,4.63a6.65,6.65,0,0,1,1.45,2.6" transform="translate(-2 -1.92)" fill="none" stroke="#eb008b" stroke-linecap="round" stroke-linejoin="round" stroke-width="2"/><path d="M21.44,11.43a11.91,11.91,0,0,1-.51,3" transform="translate(-2 -1.92)" fill="none" stroke="#eb008b" stroke-linecap="round" stroke-linejoin="round" stroke-width="2"/><path d="M21.87,15.87a6.08,6.08,0,0,1,1,2.79" transform="translate(-2 -1.92)" fill="none" stroke="#eb008b" stroke-linecap="round" stroke-linejoin="round" stroke-width="2"/><path d="M22.4,22.65a4.84,4.84,0,0,1-2,2.15" transform="translate(-2 -1.92)" fill="none" stroke="#eb008b" stroke-linecap="round" stroke-linejoin="round" stroke-width="2"/><path d="M27.31,19.36a7.79,7.79,0,0,1-2.25,2" transform="translate(-2 -1.92)" fill="none" stroke="#eb008b" stroke-linecap="round" stroke-linejoin="round" stroke-width="2"/><path d="M17.25,21.87a9.14,9.14,0,0,1-2.55-1.56" transform="translate(-2 -1.92)" fill="none" stroke="#eb008b" stroke-linecap="round" stroke-linejoin="round" stroke-width="2"/><path d="M19.17,15c0,1.31,1.12,1.81,2.51,1.81s2.52-.48,2.53-1.79-1.12-1.81-2.51-1.81S19.17,13.72,19.17,15Z" transform="translate(-2 -1.92)" fill="#48321b"/><path d="M21.79,13.25a3.48,3.48,0,0,1,1.57.35,1.28,1.28,0,0,1,.6,1.15c0,1.09-.94,1.49-2.09,1.48s-2.08-.42-2.08-1.5S20.68,13.26,21.79,13.25Z" transform="translate(-2 -1.92)" fill="#fff" opacity="0.15"/><path d="M22.5,13.32h0a2.77,2.77,0,0,1,.84.29,0.66,0.66,0,0,1,.17.47,0.85,0.85,0,0,1-1.05.75,0.85,0.85,0,0,1-1-.76A0.85,0.85,0,0,1,22.5,13.32Z" transform="translate(-2 -1.92)" fill="#fff" opacity="0.15"/><path d="M8.1,15.82a10.22,10.22,0,0,1,.54-3.18c1.29,0.88.49,3.55,2.28,7.06,2.2,4.31,11.91,3.73,14.57,2.18s3.17-3.55,4.8-3.39c-1.32,4-5.72,6.36-10.93,6.34C13.12,24.8,8.08,21.42,8.1,15.82Z" transform="translate(-2 -1.92)" fill="#231f20" opacity="0.05" style="mix-blend-mode:multiply"/><path d="M15.89,5.14a10.33,10.33,0,0,1,3.55-.62,11.55,11.55,0,0,1,9.73,6c-0.85.32-1.27-.7-2.16-1.62C25.6,7.4,23.08,5.22,19.59,5.31,17.52,5.36,16.5,5.49,15.89,5.14Z" transform="translate(-2 -1.92)" fill="#fff" opacity="0.15"/><path d="M2.41,33.32l0.39-.77c0.78,0.94-.15,3.37,2.1,3.6,2.73,0.27,3.89-4.67,4.56-8.58,0.49-2.89,1.37-3.74,2.18-3.6C12,27.12,9,34.25,8.13,35.83a3.39,3.39,0,0,1-4.4,1.64A2.85,2.85,0,0,1,2.41,33.32Z" transform="translate(-2 -1.92)" fill="#231f20" opacity="0.05" style="mix-blend-mode:multiply"/><path d="M3.25,31.67C5,28.34,7.89,23.76,9.83,22.72c1,1.22-1.39,3.37-3,6.16S4.6,32,3.25,31.67Z" transform="translate(-2 -1.92)" fill="#fff" opacity="0.15"/><path d="M10.14,42.74c2.61,0,4.56,3.18,6.5,1.7,1.48-1.12,2.56-1,3.39-.54a5.47,5.47,0,0,1-5.43,3.62A5.4,5.4,0,0,1,9,42.77C9.41,42.74,9.81,42.74,10.14,42.74Z" transform="translate(-2 -1.92)" fill="#231f20" opacity="0.05" style="mix-blend-mode:multiply"/><path d="M55.76,23.56c-1.25-1.78-7.61,3.9-10.27,6.68a2.54,2.54,0,0,0,0,3.88,3,3,0,0,0,4.19-.19C51.09,32.62,57.08,25.44,55.76,23.56Z" transform="translate(-2 -1.92)" fill="#6dc5ac"/><path d="M49.36,28.41c1.16-1.16,5.79-4.55,5.38-5l-0.16-.17c-2.32.53-6.92,4.7-9.09,7a4.12,4.12,0,0,0-.29.34C46.37,31.26,48.28,29.49,49.36,28.41Z" transform="translate(-2 -1.92)" fill="#fff" opacity="0.15"/><path d="M53.86,27.19c-1,2-3.56,5.54-5.63,5.79-1.62.19-2.37-1.23-3.51-1.5a2.47,2.47,0,0,0,.77,2.64,3,3,0,0,0,4.19-.19c1.37-1.27,7-8,6.19-10.17A10.33,10.33,0,0,0,53.86,27.19Z" transform="translate(-2 -1.92)" fill="#231f20" opacity="0.05" style="mix-blend-mode:multiply"/><path d="M54.83,33.9a99.74,99.74,0,0,0-10.24-.75c-4.33,0-4.9,2-4.37,5.68,0.32,2.22,2.1,5,4.37,4.81s11.36-4.81,11.36-4.81Z" transform="translate(-2 -1.92)" fill="#6dc5ac"/><path d="M46.73,37c-1.84-4.58-5.42-3.46-6.1-2.52l0,0h0C40,35.53,40,37,40.22,38.83c0.32,2.22,2.1,5,4.37,4.81l0.18,0C46.94,43.18,48.24,40.81,46.73,37Z" transform="translate(-2 -1.92)" fill="#38ba9b"/><path d="M41.55,38.66c0.43,1.56,1.61,3.49,2.81,3.49H44.5a1.57,1.57,0,0,0,1.11-.81,4.67,4.67,0,0,0-.26-3.73c-0.45-1.11-1.26-2.43-2.59-2.43S41,36.83,41.55,38.66Z" transform="translate(-2 -1.92)" fill="#231f20" opacity="0.1" style="mix-blend-mode:multiply"/><path d="M55.72,37.81l-0.36,0a27.85,27.85,0,0,0-9.74,3.5c-1.68,1-3.32-.5-4.88-0.76,0.75,1.7,2.17,3.21,3.86,3.06,2.26-.2,11.36-4.81,11.36-4.81Z" transform="translate(-2 -1.92)" fill="#231f20" opacity="0.05" style="mix-blend-mode:multiply"/><path d="M55.39,23.18a15.65,15.65,0,0,0-3.26,9c0,3.45.52,8.65,9.25,8.65S71.44,36.92,71,32s-1.71-8.58-4.17-10.49Z" transform="translate(-2 -1.92)" fill="#6dc5ac"/><path d="M55.66,23.45l-0.35-.17a15.64,15.64,0,0,0-3.18,8.88c0,0.26,0,.54,0,0.82,1.09-.2,1.12-2.38,1.37-3.31C54.67,25.43,58.06,24.79,55.66,23.45Z" transform="translate(-2 -1.92)" fill="#fff" opacity="0.15"/><path d="M58.29,25.64c-0.21.63-.59,1.63-1,2.84" transform="translate(-2 -1.92)" fill="none" stroke="#29947d" stroke-linecap="round" stroke-linejoin="round" stroke-width="2"/><path d="M56.61,31.65a11.68,11.68,0,0,0,.21,4.85" transform="translate(-2 -1.92)" fill="none" stroke="#29947d" stroke-linecap="round" stroke-linejoin="round" stroke-width="2" stroke-dasharray="3.26 3.26"/><path d="M57.43,38a7.44,7.44,0,0,0,1.91,2.3" transform="translate(-2 -1.92)" fill="none" stroke="#29947d" stroke-linecap="round" stroke-linejoin="round" stroke-width="2"/><path d="M52.6,36c0.81,2.55,3,4.84,8.78,4.84,8.74,0,10-3.89,9.61-8.81a22,22,0,0,0-1.68-7.21c-4.12,2.08-.38,8.26-0.88,11.16-0.57,3.25-8,4.85-11,2.72C55.28,37.15,53.91,36,52.6,36Z" transform="translate(-2 -1.92)" fill="#231f20" opacity="0.08" style="mix-blend-mode:multiply"/><path d="M68,23.18C70,21.72,74.77,30,76.63,33.87A2.85,2.85,0,0,1,75.29,38a3.39,3.39,0,0,1-4.4-1.66C69.84,34.46,66,24.73,68,23.18Z" transform="translate(-2 -1.92)" fill="#6dc5ac"/><path d="M70.08,42.52a5.7,5.7,0,0,1-11.4,0c0-3.36,1.76-6.67,5.7-6.67S70.08,39.17,70.08,42.52Z" transform="translate(-2 -1.92)" fill="#38ba9b"/><path d="M64.38,37.64c-3.72,0-3.91,4.07-3.91,4.88a3.92,3.92,0,0,0,7.82,0C68.29,41.7,68.11,37.64,64.38,37.64Z" transform="translate(-2 -1.92)" fill="#231f20" opacity="0.1" style="mix-blend-mode:multiply"/><ellipse cx="68.92" cy="7.15" rx="4.4" ry="4.78" transform="translate(13.13 48.9) rotate(-45)" fill="#6dc5ac"/><path d="M68.55,4.64a2.13,2.13,0,0,0-1.53.6,2.53,2.53,0,0,0,.27,3.54,2.89,2.89,0,0,0,2,.87,2.13,2.13,0,0,0,1.53-.6,2.53,2.53,0,0,0-.27-3.54A2.89,2.89,0,0,0,68.55,4.64Z" transform="translate(-2 -1.92)" fill="#38ba9b"/><path d="M72,4a4.6,4.6,0,0,0-6.49-.27,4.08,4.08,0,0,0-.48.59c1,0.43,1.75-1.53,4.34-.86a4.05,4.05,0,0,1,3.18,4.85c-0.32,1.19-.55,1.83-0.33,2.22l0,0A4.6,4.6,0,0,0,72,4Z" transform="translate(-2 -1.92)" fill="#fff" opacity="0.15"/><path d="M70.56,5.51a2.89,2.89,0,0,0-2-.87,2.13,2.13,0,0,0-1.53.6,2.09,2.09,0,0,0-.6,1.32c0.49-.11.86-1.29,2.17-1.35A2.31,2.31,0,0,1,71,7.67,6.51,6.51,0,0,0,71,8.9,2.57,2.57,0,0,0,70.56,5.51Z" transform="translate(-2 -1.92)" fill="#231f20" opacity="0.05" style="mix-blend-mode:multiply"/><ellipse cx="52.63" cy="6.56" rx="4.37" ry="4.02" transform="translate(8.78 37.21) rotate(-45)" fill="#6dc5ac"/><path d="M51.13,5.06a2.31,2.31,0,0,0-.24,3.24,2,2,0,0,0,1.4.55,2.64,2.64,0,0,0,1.84-.8,2.31,2.31,0,0,0,.24-3.24A2,2,0,0,0,53,4.27,2.64,2.64,0,0,0,51.13,5.06Z" transform="translate(-2 -1.92)" fill="#38ba9b"/><path d="M49.78,3.71a4.21,4.21,0,0,1,5.93-.24,3.74,3.74,0,0,1,.44.54c-0.92.4-1.6-1.4-4-.79a3.71,3.71,0,0,0-2.91,4.44c0.29,1.09.5,1.68,0.3,2l0,0A4.21,4.21,0,0,1,49.78,3.71Z" transform="translate(-2 -1.92)" fill="#fff" opacity="0.15"/><path d="M51.13,5.06A2.64,2.64,0,0,1,53,4.27a2,2,0,0,1,1.4.55A1.92,1.92,0,0,1,54.92,6c-0.45-.1-0.79-1.18-2-1.23A2.11,2.11,0,0,0,50.71,7a6,6,0,0,1,.05,1.12A2.35,2.35,0,0,1,51.13,5.06Z" transform="translate(-2 -1.92)" fill="#231f20" opacity="0.05" style="mix-blend-mode:multiply"/><path d="M71,16.33c0,5.61-5.06,9-11.29,9s-11.29-3.35-11.29-9S53.49,5,59.72,5,71,10.73,71,16.33Z" transform="translate(-2 -1.92)" fill="#6dc5ac"/><path d="M51,17.8c-0.51-.88,2.78-3.33,7.06-3,5.07,0.37,7,3.1,6.5,3.83S60.93,17.18,57.31,17C54.47,16.94,51.49,18.66,51,17.8Z" transform="translate(-2 -1.92)" fill="#fff" opacity="0.15"/><circle cx="50.88" cy="11.62" r="0.97" fill="#48321b"/><circle cx="50.64" cy="11.37" r="0.4" fill="#fff"/><circle cx="62.25" cy="11.95" r="0.97" fill="#48321b"/><circle cx="62" cy="11.7" r="0.4" fill="#fff"/><path d="M59.72,5.1a6.65,6.65,0,0,0-1.46,2.59" transform="translate(-2 -1.92)" fill="none" stroke="#29947d" stroke-linecap="round" stroke-linejoin="round" stroke-width="2"/><path d="M57.7,11.89a11.91,11.91,0,0,0,.49,3" transform="translate(-2 -1.92)" fill="none" stroke="#29947d" stroke-linecap="round" stroke-linejoin="round" stroke-width="2"/><path d="M57.25,16.32a6.08,6.08,0,0,0-1,2.78" transform="translate(-2 -1.92)" fill="none" stroke="#29947d" stroke-linecap="round" stroke-linejoin="round" stroke-width="2"/><path d="M56.69,23.1a4.84,4.84,0,0,0,2,2.16" transform="translate(-2 -1.92)" fill="none" stroke="#29947d" stroke-linecap="round" stroke-linejoin="round" stroke-width="2"/><path d="M51.79,19.79a7.79,7.79,0,0,0,2.24,2" transform="translate(-2 -1.92)" fill="none" stroke="#29947d" stroke-linecap="round" stroke-linejoin="round" stroke-width="2"/><path d="M61.84,22.34a9.14,9.14,0,0,0,2.56-1.55" transform="translate(-2 -1.92)" fill="none" stroke="#29947d" stroke-linecap="round" stroke-linejoin="round" stroke-width="2"/><path d="M60,15.5c0,1.31-1.13,1.8-2.52,1.8s-2.52-.49-2.52-1.8,1.13-1.8,2.52-1.8S60,14.19,60,15.5Z" transform="translate(-2 -1.92)" fill="#48321b"/><path d="M57.34,13.7a3.48,3.48,0,0,0-1.58.34,1.28,1.28,0,0,0-.6,1.15c0,1.09.93,1.49,2.09,1.49s2.09-.41,2.09-1.49S58.45,13.72,57.34,13.7Z" transform="translate(-2 -1.92)" fill="#fff" opacity="0.15"/><path d="M56.63,13.77h0a2.77,2.77,0,0,0-.84.28,0.66,0.66,0,0,0-.17.47,1.11,1.11,0,0,0,2.1,0A0.85,0.85,0,0,0,56.63,13.77Z" transform="translate(-2 -1.92)" fill="#fff" opacity="0.15"/><path d="M71,16.33a10.22,10.22,0,0,0-.52-3.18C69.2,14,70,16.7,68.19,20.2,66,24.51,56.26,23.88,53.6,22.32s-3.16-3.56-4.78-3.41c1.3,4,5.69,6.39,10.9,6.39C66,25.3,71,21.94,71,16.33Z" transform="translate(-2 -1.92)" fill="#231f20" opacity="0.05" style="mix-blend-mode:multiply"/><path d="M63.27,5.62A10.33,10.33,0,0,0,59.72,5,11.55,11.55,0,0,0,50,10.91c0.85,0.32,1.28-.7,2.17-1.61,1.43-1.46,3.95-3.63,7.44-3.52C61.65,5.84,62.67,6,63.27,5.62Z" transform="translate(-2 -1.92)" fill="#fff" opacity="0.15"/><path d="M76.63,33.87l-0.38-.78c-0.79.94,0.13,3.37-2.12,3.59-2.73.26-3.87-4.68-4.52-8.6-0.48-2.89-1.35-3.75-2.16-3.61C67.11,27.61,70,34.76,70.9,36.35A3.39,3.39,0,0,0,75.29,38,2.85,2.85,0,0,0,76.63,33.87Z" transform="translate(-2 -1.92)" fill="#231f20" opacity="0.05" style="mix-blend-mode:multiply"/><path d="M75.79,32.21c-1.76-3.33-4.6-7.93-6.53-9-1,1.21,1.37,3.37,3,6.17S74.45,32.54,75.79,32.21Z" transform="translate(-2 -1.92)" fill="#fff" opacity="0.15"/><path d="M68.86,43.24c-2.61,0-4.57,3.16-6.51,1.67-1.47-1.13-2.56-1.05-3.39-.56A5.47,5.47,0,0,0,64.38,48,5.4,5.4,0,0,0,70,43.28C69.59,43.25,69.19,43.24,68.86,43.24Z" transform="translate(-2 -1.92)" fill="#231f20" opacity="0.05" style="mix-blend-mode:multiply"/><text transform="translate(76.78 21.39)" font-size="24" fill="#ce5a96" font-family="Curely">cherry blossom, <tspan fill="#046743"><tspan x="49.42" y="19.14">little wolf</tspan></tspan></text><text transform="translate(76.98 34.93)" font-size="10" fill="#ce5a96" font-family="TAbimyou_Add_p">さくら、<tspan x="25.21" y="0" fill="#046743">小狼</tspan></text></g></g></svg>